<svg version="1.2" width="384" height="582.728" viewBox="0 0 10160 15418" preserveAspectRatio="xMidYMid" fill-rule="evenodd" stroke-width="28.222" stroke-linejoin="round" xmlns="http://www.w3.org/2000/svg"><g class="SlideGroup"><path fill="#2A7718" d="M2059 10259s1290 645 2170 645 2229-352 2992-352 1525 352 1525 352l821 1114 59 1524s-763 997-1173 1348c-2053 20-4106 40-6159 59-489-215-1760-1407-1760-1407v-1524l1525-1759z"/><path fill="#1C1C1C" d="M2293 15418v-59C475 15359 0 13542 0 12721c0-820 358-1524 478-1662l2578-3071V4337h-528v-762h5103v762h-528v3650l2579 3072c120 138 478 842 478 1662 0 821-476 2638-2294 2638v59H2293zm4048-7152V4572H3818v3692l-2756 3284c-117 117-352 646-345 1173 8 527 345 1876 1577 1862h5572c1232 14 1569-1335 1577-1862 7-527-228-1055-346-1172L6341 8266z"/><path fill="#39CF17" d="M5051 7152c499 0 880 380 880 879s-381 880-880 880-880-381-880-880 381-879 880-879z"/><path fill="#63CF17" d="M6018 10200c416 0 733 317 733 732 0 416-317 733-733 733s-733-317-733-733c0-415 317-732 733-732z"/><path fill="#91CF17" d="M7191 12486c216 0 382 165 382 381s-166 381-382 381-381-165-381-381 165-381 381-381z"/><path fill="#39CF17" d="M2763 11724c499 0 880 381 880 880s-381 879-880 879-880-380-880-879 381-880 880-880z"/><path fill="#91CF17" d="M3877 9907c300 0 529 229 529 528s-229 528-529 528c-299 0-528-229-528-528s229-528 528-528z"/><path fill="#39CF17" d="M5051 1700c499 0 880 380 880 879s-381 880-880 880-880-381-880-880 381-879 880-879z"/><path fill="#63CF17" d="M4171 0c399 0 704 305 704 703 0 400-305 704-704 704s-704-304-704-704c0-398 305-703 704-703z"/><path fill="#91CF17" d="M6370 527c249 0 440 190 440 439 0 250-191 440-440 440s-440-190-440-440c0-249 191-439 440-439z"/></g></svg>