<svg version="1.2" width="181.72" height="426.028" viewBox="0 0 4808 11272" preserveAspectRatio="xMidYMid" fill-rule="evenodd" stroke-width="28.222" stroke-linejoin="round" xmlns="http://www.w3.org/2000/svg"><g class="SlideGroup"><path fill="#B2B2B2" d="M2404 11271h-99V4589h198v6682h-99z"/><path fill="#F4911D" d="M2274 4753L54 2533c-13-12-21-24-29-39-17-28-25-57-25-91 0-33 8-61 25-91 8-14 16-25 29-38L2274 54c13-13 24-21 38-29 30-17 58-25 91-25 34 0 63 8 91 25 15 8 27 16 38 29l2221 2220c13 13 22 24 29 39 18 29 25 57 25 90 0 34-7 63-25 91-7 15-16 27-29 39L2532 4753c-70 71-188 71-258 0z"/><path d="M2311 4718L90 2497c-51-51-51-135 0-186L2311 90c51-51 135-51 186 0l2221 2221c8 9 15 16 21 26 11 21 17 43 17 68 0 23-6 45-17 66-6 10-13 17-21 26L2497 4718c-51 51-135 51-186 0z"/><path fill="#F4911D" d="M2359 4666L140 2447c-5-4-8-8-10-13-6-10-9-20-9-31 0-12 3-22 9-32 2-5 5-8 10-12L2359 140c4-5 7-8 12-10 10-6 20-9 32-9 11 0 21 3 31 9 5 2 9 5 13 10l2219 2219c25 24 25 64 0 88L2447 4666c-4 5-8 7-13 10-10 6-20 8-31 8-12 0-22-2-32-8-5-3-8-5-12-10z"/><path d="M1413 1890l157-150-85 209-72-59zm531 175l90 495-177-162 87-333zm-426 1524h-199l42-1336 47-115-238-232c196-197 391-395 588-592 99 87 204 107 312 88l143 1306c199 169 399 336 598 505-145-266-79-556 175-480l651 198-664 661h-701l260-506-662-556 117 333-22 726h-158l-27-613-166-301-96 914zm475-2803c152 0 276 124 276 276 0 153-124 277-276 277-151 0-277-124-277-277 0-152 126-276 277-276z"/></g></svg>