<svg version="1.2" width="992.164" height="992.164" viewBox="0 0 26251 26251" preserveAspectRatio="xMidYMid" fill-rule="evenodd" stroke-width="28.222" stroke-linejoin="round" xmlns="http://www.w3.org/2000/svg"><g class="SlideGroup"><path fill="#F4AC1D" d="M19461 1811c0-996 815-1811 1811-1811s1811 815 1811 1811-815 1811-1811 1811-1811-815-1811-1811z"/><path fill="#FC0" d="M21265 5431h-1804V3349h3608v2082h-1804z"/><path fill="#F4AC1D" d="M6790 1811C6790 815 5975 0 4979 0S3168 815 3168 1811s815 1811 1811 1811 1811-815 1811-1811z"/><path fill="#FC0" d="M4979 5431H3175V3349h3608v2082H4979z"/><path fill="#F4911D" d="M0 10863h26251V5431H0v5432z"/><path fill="#6B4F41" d="M4073 26251h1811V10863H4073v15388zM20366 26251h1811V10863h-1811v15388z"/><path fill="#4C2C28" d="M5884 23989h14484v-2717H5884v2717z"/><path fill="#F0F0F0" d="M3485 5431L0 8917v1946h4481l5432-5432H3485zM10862 10863h6381l5432-5432h-6382l-5431 5432zM26251 10863V8282l-2581 2581h2581z"/><path fill="#F4911D" d="M0 18104h26251v-5432H0v5432z"/><path fill="#F0F0F0" d="M3485 12672L0 16158v1946h4481l5432-5432H3485zM10862 18104h6381l5432-5432h-6382l-5431 5432zM26251 18105v-2581l-2581 2581h2581z"/></g></svg>