<svg width="180" height="180" fill-rule="evenodd" stroke-linejoin="round" stroke-width="28.222" preserveAspectRatio="xMidYMid" version="1.2" viewBox="0 0 6350 6350" xmlns="http://www.w3.org/2000/svg"><g class="SlideGroup"><path d="m6250 2926-2825-2824c-135-137-363-136-499 0l-2824 2824c-136 136-136 363 0 499l2824 2823c136 135 364 136 499 0l2825-2823c147-147 122-350 0-499z" fill="#ffd033"/><path d="m6187 3361-2825 2823c-101 102-271 102-372 0l-2825-2823c-101-101-102-271 0-372l2825-2824c101-100 271-101 372 0l2825 2824c101 101 101 271 0 372z"/><path d="m6082 3257c44-44 44-119 0-163l-2825-2824c-44-43-118-44-162 0l-2825 2824c-44 45-44 118 0 163l2825 2823c44 45 118 45 162 0l2825-2823z" fill="#ffd033"/><path d="m4570 2457c0 126-29 227-86 284-26 27-56 37-106 37h-149v-640h169c40 0 73 16 96 39 47 50 76 155 76 280zm153 0c0-184-56-332-156-418-50-39-86-49-182-49h-305v938h288 53c50-3 100-19 136-52 106-83 166-230 166-419zm-1091 57h-189l96-264 93 264zm305 414-325-938h-149l-326 938h160l92-263h296l93 263h159zm-872 0v-150h-438v-258h275v-151h-275v-231h408v-148h-558v938h588zm-946-471c0 126-30 227-86 284-27 27-57 37-106 37h-150v-640h169c40 0 74 16 97 39 46 50 76 155 76 280zm153 0c0-184-57-332-156-418-50-39-87-49-183-49h-305v938h289 53c50-3 99-19 136-52 106-83 166-230 166-419z"/><path d="m4149 4015c0 125-30 227-86 283-27 27-57 37-107 37h-149v-640h169c40 0 73 16 97 39 46 50 76 155 76 281zm153 0c0-185-57-333-156-419-50-39-87-49-183-49h-305v938h288 54c49-3 99-19 136-52 106-83 166-230 166-419v1zm-866 470v-938h-150v599l-345-599h-149v938h149v-636l362 636h133zm-800 0v-151h-438v-256h276v-152h-276v-232h408v-147h-557v938h587z"/></g></svg>